<?xml version="1.0" encoding="UTF-8" standalone="no"?>
<!DOCTYPE svg PUBLIC "-//W3C//DTD SVG 1.1//EN" "http://www.w3.org/Graphics/SVG/1.1/DTD/svg11.dtd">
<svg width="100%" height="100%" viewBox="0 0 1536 2048" version="1.1" xmlns="http://www.w3.org/2000/svg" xmlns:xlink="http://www.w3.org/1999/xlink" xml:space="preserve" style="fill-rule:evenodd;clip-rule:evenodd;stroke-linejoin:round;stroke-miterlimit:1.41421;">
    <g transform="matrix(2.72998,0,0,2.72998,-320.529,-60.2074)">
        <g id="Objects">
            <g>
                <clipPath id="_clip1">
                    <path d="M555.799,271.533L557.084,278.28L552.656,274.796C539.462,293.382 520.507,299.973 520.507,299.973L522.765,309.496L515.847,302.614C504.094,307.708 485.442,319.702 485.442,319.702L486.417,329.073L482.5,322.327C468.51,328.018 457.865,339.109 457.865,339.109L463.626,363.051L453.964,344.067C444.996,355.462 439.582,371.087 439.582,371.087L436.073,372.63L441.206,384.69C441.206,384.69 442.297,393.876 460.129,396.725C477.965,399.576 508.046,379.942 508.046,379.942L498.698,372.87L511.189,376.679L499.902,369.518L513.558,373.669L500.728,367.011L518.498,370.673C531.685,360.113 545.621,340.964 545.621,340.964C537.638,341.279 528.871,333.805 528.871,333.805C537.513,336.307 551.885,332.987 551.885,332.987C561.82,320.73 567.696,306.708 567.696,306.708C563.819,306.528 555.708,304.447 555.708,304.447L569.698,301.976L557.154,300.421L572.043,296.079C581.059,265.313 578.919,235.234 578.919,235.234C577.966,252.841 555.799,271.533 555.799,271.533Z"/>
                </clipPath>
                <g clip-path="url(#_clip1)">
                    <path d="M576.93,232.965L620.294,282.428L464.408,419.096L421.043,369.633L576.93,232.965Z" style="fill:url(#_Radial2);fill-rule:nonzero;"/>
                </g>
                <clipPath id="_clip3">
                    <path d="M514.959,331.033C449.746,368.897 463.319,336.237 463.594,333.935C459.996,336.893 457.865,339.109 457.865,339.109L463.626,363.051L453.964,344.067C444.996,355.462 439.582,371.087 439.582,371.087L436.073,372.63L441.206,384.69C441.206,384.69 442.297,393.876 460.129,396.725C477.965,399.576 508.046,379.942 508.046,379.942L498.698,372.87L511.189,376.679L499.902,369.518L513.558,373.669L500.728,367.011L518.498,370.673C531.685,360.113 545.621,340.964 545.621,340.964C537.638,341.279 528.871,333.805 528.871,333.805C537.513,336.307 551.885,332.987 551.885,332.987C561.82,320.73 567.696,306.708 567.696,306.708C563.819,306.528 555.708,304.447 555.708,304.447L569.698,301.976L557.154,300.421L572.043,296.079C580.069,268.689 579.253,241.862 578.977,236.299C577.094,253.804 567.17,300.717 514.959,331.033Z"/>
                </clipPath>
                <g clip-path="url(#_clip3)">
                    <path d="M577.134,234.196L619.799,282.862L464.408,419.096L421.742,370.431L577.134,234.196Z" style="fill:url(#_Radial4);fill-rule:nonzero;"/>
                </g>
                <clipPath id="_clip5">
                    <path d="M518.025,226.829C491.993,246.549 486.409,252.689 486.409,252.689C486.409,252.689 484.878,264.484 489.808,272.359C489.808,272.359 480.132,266.814 477.627,259.339C477.627,259.339 477.538,268.67 480.003,272.608C480.003,272.608 475.113,267.024 473.186,263.59C473.186,263.59 453.314,279.207 439.959,297.354C439.959,297.354 441.825,310.124 443.243,312.851L435.787,303.934C435.787,303.934 433.532,306.262 431.158,316.878C428.781,327.491 430.243,356.185 430.243,356.185L439.384,365.172L454.124,362.664C454.124,362.664 491.475,352.798 511.98,324.203C511.98,324.203 503.425,325.696 486.912,320.062C486.912,320.062 508.876,320.368 519.312,315.031C519.312,315.031 540.977,294.517 550.629,261.22L530.816,257.948L552.032,252.729L532.83,253.296L555.256,245.785C555.256,245.785 565.985,211.005 560.143,178.472C560.143,178.472 544.055,207.109 518.025,226.829Z"/>
                </clipPath>
                <g clip-path="url(#_clip5)">
                    <path d="M541.259,164.05L604.013,211.975L469.471,388.149L406.716,340.224L541.259,164.05Z" style="fill:url(#_Radial6);fill-rule:nonzero;"/>
                </g>
                <clipPath id="_clip7">
                    <path d="M477.784,311.079C455.383,330.675 440.325,344.97 430.206,355.387C430.23,355.9 430.243,356.185 430.243,356.185L439.384,365.172L454.124,362.664C454.124,362.664 491.475,352.798 511.98,324.203C511.98,324.203 503.425,325.696 486.912,320.062C486.912,320.062 508.876,320.368 519.312,315.031C519.312,315.031 540.977,294.517 550.629,261.22L530.816,257.948L552.032,252.729L532.83,253.296L555.256,245.785C555.256,245.785 565.923,211.192 560.185,178.734C554.729,201.794 535.885,260.249 477.784,311.079Z"/>
                </clipPath>
                <g clip-path="url(#_clip7)">
                    <path d="M462.07,162.524L570.991,180.519L537.797,381.431L428.876,363.436L462.07,162.524Z" style="fill:url(#_Radial8);fill-rule:nonzero;"/>
                </g>
                <clipPath id="_clip9">
                    <path d="M353.636,131.814L361.028,137.569L353.355,137.984C356.572,168.899 343.089,192.718 343.089,192.718L353.973,200.437L340.694,199.619C333.239,215.415 324.933,244.492 324.933,244.492L334.367,253.215L324.283,249.831C315.076,268.253 314.158,289.2 314.158,289.2L341.61,308.536L314.623,297.789C315.694,317.534 324.215,338.415 324.215,338.415L322.01,343.154L338.127,350.886C338.127,350.886 347.513,359.313 368.347,346.179C389.181,333.044 402.318,285.849 402.318,285.849L386.376,287.023L402.6,279.679L384.592,282.503L402.316,274.461L383.18,279.191L404.678,266.944C408.681,244.257 405.715,212.097 405.715,212.097C397.824,219.606 382.115,219.842 382.115,219.842C393.222,214.624 404.953,198.286 404.953,198.286C404.095,176.786 397.489,157.136 397.489,157.136C393.358,160.439 383.173,165.608 383.173,165.608L395.28,150.484L381.033,160.185L392.377,142.331C373.911,102.703 344.64,73.817 344.64,73.817C359.518,92.708 353.636,131.814 353.636,131.814Z"/>
                </clipPath>
                <g clip-path="url(#_clip9)">
                    <path d="M344.64,73.817L498.311,208.861L354.898,372.056L201.227,237.011L344.64,73.817Z" style="fill:url(#_Radial10);fill-rule:nonzero;"/>
                </g>
                <clipPath id="_clip11">
                    <path d="M345.143,74.475C344.993,74.271 344.844,74.07 344.695,73.873C344.671,73.848 344.64,73.817 344.64,73.817C344.81,74.034 344.978,74.253 345.143,74.475ZM345.352,74.759C345.283,74.663 345.214,74.569 345.143,74.475C345.213,74.569 345.282,74.664 345.352,74.759ZM353.636,131.814L361.028,137.569L353.355,137.984C356.572,168.899 343.089,192.718 343.089,192.718L353.973,200.437L340.694,199.619C333.239,215.415 324.933,244.492 324.933,244.492L334.367,253.215L324.283,249.831C315.076,268.253 314.158,289.2 314.158,289.2L341.61,308.536L314.623,297.789C315.694,317.534 324.215,338.415 324.215,338.415L322.01,343.154L338.127,350.886C338.127,350.886 347.513,359.313 368.347,346.179C375.929,341.398 382.485,332.104 387.768,322.218C382.272,323.89 375.302,324.009 368.261,318.337C353.507,306.453 362.414,290.941 360.464,290.47C358.516,289.997 388.962,219.149 375.92,152.36C367.906,111.324 354.501,87.238 345.352,74.759C359.327,93.976 353.636,131.814 353.636,131.814Z"/>
                </clipPath>
                <g clip-path="url(#_clip11)">
                    <path d="M494.986,207.271L351.296,369.149L200.95,235.696L344.64,73.817L494.986,207.271Z" style="fill:url(#_Radial12);fill-rule:nonzero;"/>
                </g>
                <clipPath id="_clip13">
                    <path d="M250.342,320.333C255.428,321.338 266.902,320.909 266.902,320.909C262.015,323.391 252.769,325.394 252.769,325.394C256.497,332.563 263.393,338.501 263.393,338.501C267.792,338.975 276.809,336.795 276.809,336.795C273.46,339.699 266.602,340.986 266.602,340.986C271.984,349.182 286.022,355.626 286.022,355.626C286.022,355.626 293.378,362.982 298.012,362.189C302.645,361.398 316.061,364.437 318.959,364.482C321.857,364.526 345.303,370.218 347.539,369.933C349.774,369.65 358.808,366.588 358.808,366.588C358.808,366.588 367.26,346.357 360.423,338.073C353.587,329.791 333.487,324.428 333.487,324.428L323.566,332.499L329.119,321.765L319.747,330.092L324.652,318.314L314.147,326.04C317.128,323.125 321.799,315.372 321.799,315.372L317.269,312.231C315.572,315.132 307.479,321.325 307.479,321.325C308.846,319.085 312.28,308.733 312.28,308.733L306.63,304.909C303.144,310.515 293.187,317.774 293.187,317.774C297.189,311.894 299.581,301.467 299.581,301.467C293.58,299.753 282.94,292.431 282.94,292.431L277.222,299.442L279.555,290.175L273.156,299.958L277.544,288.985L270.8,284.68C268.592,286.819 258.175,291.036 258.175,291.036C261.312,288.159 264.535,279.281 264.535,279.281C252.122,274.25 235.085,247.499 235.085,247.499C233.346,289.032 250.342,320.333 250.342,320.333Z"/>
                </clipPath>
                <g clip-path="url(#_clip13)">
                    <path d="M246.11,234.998L374.778,348.481L329.454,399.87L200.786,286.387L246.11,234.998Z" style="fill:url(#_Radial14);fill-rule:nonzero;"/>
                </g>
                <clipPath id="_clip15">
                    <path d="M250.342,320.333C255.428,321.338 266.902,320.909 266.902,320.909C262.015,323.391 252.769,325.394 252.769,325.394C256.497,332.563 263.393,338.501 263.393,338.501C267.792,338.975 276.809,336.795 276.809,336.795C273.46,339.699 266.602,340.986 266.602,340.986C271.984,349.182 286.022,355.626 286.022,355.626C286.022,355.626 293.378,362.982 298.012,362.189C302.645,361.398 316.061,364.437 318.959,364.482C321.857,364.526 345.303,370.218 347.539,369.933C349.774,369.65 358.808,366.588 358.808,366.588C358.808,366.588 358.96,366.222 359.203,365.58C345.673,353.974 321.273,348.508 287.344,330.299C253.12,311.931 239.113,264.173 235.197,247.673C235.131,247.569 235.085,247.499 235.085,247.499C233.346,289.032 250.342,320.333 250.342,320.333Z"/>
                </clipPath>
                <g clip-path="url(#_clip15)">
                    <path d="M235.085,247.499L368.4,354.654L333.23,398.41L199.915,291.255L235.085,247.499Z" style="fill:url(#_Radial16);fill-rule:nonzero;"/>
                </g>
                <clipPath id="_clip17">
                    <path d="M261.914,127.757L276.668,135.442L261.604,131.445C261.604,131.445 261.292,145.892 261.604,151.732L280.356,161.567L261.466,159.108L261.466,162.797L288.963,169.56L261.466,167.714L291.73,176.014L263.452,173.862C263.452,173.862 264.374,196.914 266.833,208.286C266.833,208.286 279.127,212.59 288.963,213.511C288.963,213.511 273.287,213.819 265.91,212.282C265.91,212.282 276.361,249.165 285.275,262.997C285.275,262.997 306.176,264.534 318.162,259.002C318.162,259.002 305.253,271.193 290.193,273.243C290.193,273.243 300.335,295.884 306.789,302.647C306.789,302.647 325.847,305.413 335.989,298.036C335.989,298.036 328.305,307.947 311.093,309.754C311.093,309.754 331.071,337.685 355.046,342.605C379.02,347.521 380.534,334.919 380.534,334.919L382.708,316.785C382.708,316.785 391.928,295.577 385.475,268.837L366.726,278.366L383.629,258.694C383.629,258.694 382.094,232.568 375.024,213.511L364.574,217.814L374.717,208.286L357.504,215.663C357.504,215.663 367.954,205.827 371.029,199.987C371.029,199.987 355.968,215.971 344.902,217.814C344.902,217.814 360.886,205.213 363.959,194.763C363.959,194.763 343.365,159.417 334.145,147.429C334.145,147.429 323.08,156.65 322.159,156.65C321.236,156.65 329.842,141.896 329.842,141.896C329.842,141.896 308.327,116.385 303.102,102.861L295.11,113.005L301.565,99.48L287.733,107.779L297.262,95.792C297.262,95.792 275.746,75.505 272.364,35.241C272.364,35.241 259.456,92.719 261.914,127.757Z"/>
                </clipPath>
                <g clip-path="url(#_clip17)">
                    <path d="M373.75,358.386L164.788,257.033L272.364,35.241L481.326,136.594L373.75,358.386Z" style="fill:url(#_Radial18);fill-rule:nonzero;"/>
                </g>
                <clipPath id="_clip19">
                    <path d="M261.914,127.757L276.668,135.442L261.604,131.445C261.604,131.445 261.292,145.892 261.604,151.732L280.356,161.567L261.466,159.108L261.466,162.797L288.963,169.56L261.466,167.714L291.73,176.014L263.452,173.862C263.452,173.862 264.374,196.914 266.833,208.286C266.833,208.286 279.127,212.59 288.963,213.511C288.963,213.511 273.287,213.819 265.91,212.282C265.91,212.282 276.361,249.165 285.275,262.997C285.275,262.997 306.176,264.534 318.162,259.002C318.162,259.002 305.253,271.193 290.193,273.243C290.193,273.243 300.335,295.884 306.789,302.647C306.789,302.647 325.847,305.413 335.989,298.036C335.989,298.036 328.305,307.947 311.093,309.754C311.093,309.754 331.071,337.685 355.046,342.605C379.02,347.521 380.534,334.919 380.534,334.919L380.738,333.224C377.874,335.306 375.878,336.684 375.872,336.688C375.911,336.66 394.424,323.159 329.638,232.773C282.493,167.001 272.751,80.579 272.511,36.71C272.464,36.219 272.408,35.739 272.364,35.241C272.364,35.241 259.456,92.719 261.914,127.757Z"/>
                </clipPath>
                <g clip-path="url(#_clip19)">
                    <path d="M272.364,35.241L490.082,205.508L365.596,364.686L147.879,194.419L272.364,35.241Z" style="fill:url(#_Radial20);fill-rule:nonzero;"/>
                </g>
                <clipPath id="_clip21">
                    <path d="M431.986,107.485L439.057,113.634L431.372,113.634C432.908,144.677 418.155,167.728 418.155,167.728L428.606,176.028L415.39,174.491C407.09,189.859 397.22,218.443 397.22,218.443L406.168,227.665L396.283,223.739C386.089,241.635 384.038,262.503 384.038,262.503L410.404,283.298L384.038,271.104C384.038,290.88 391.414,312.189 391.414,312.189L388.956,316.8L404.632,325.398C404.632,325.398 413.545,334.319 435.061,322.331C456.576,310.345 472.25,263.934 472.25,263.934L456.268,264.241L472.865,257.786L454.73,259.63L472.865,252.561L453.502,256.249L475.631,245.184C480.857,222.747 479.64,190.473 479.64,190.473C471.353,197.543 455.653,196.929 455.653,196.929C467.026,192.319 479.627,176.642 479.627,176.642C479.936,155.128 474.404,135.148 474.404,135.148C470.099,138.222 459.65,142.832 459.65,142.832L472.558,128.386L457.806,137.299L470.099,120.088C453.811,79.517 426.147,49.087 426.147,49.087C439.978,68.759 431.986,107.485 431.986,107.485Z"/>
                </clipPath>
                <g clip-path="url(#_clip21)">
                    <path d="M444.369,345.134L335.655,306.989L426.147,49.087L534.861,87.232L444.369,345.134Z" style="fill:url(#_Radial22);fill-rule:nonzero;"/>
                </g>
                <g>
                    <g opacity="0.399994">
                        <g>
                            <clipPath id="_clip23">
                                <path d="M479.64,190.474C471.354,197.543 455.653,196.929 455.653,196.929C467.026,192.319 479.627,176.642 479.627,176.642C479.936,155.128 474.403,135.147 474.403,135.147C470.099,138.222 459.649,142.832 459.649,142.832L472.558,128.386L457.806,137.3L470.099,120.088C455.777,84.417 432.672,56.597 427.297,50.394C436.219,61.452 455.052,96.956 451.768,187.354C451.266,201.207 449.813,263.831 421.509,317.106C417.711,324.253 412.041,326.577 406.773,326.822C410.552,328.739 419.516,330.993 435.061,322.331C456.576,310.345 472.25,263.934 472.25,263.934L456.269,264.241L472.864,257.786L454.73,259.63L472.864,252.561L453.502,256.249L475.631,245.185C480.857,222.747 479.64,190.474 479.64,190.474Z"/>
                            </clipPath>
                            <g clip-path="url(#_clip23)">
                                <path d="M427.297,50.394L521.542,74.98L452.49,339.679L358.245,315.094L427.297,50.394Z" style="fill:url(#_Radial24);fill-rule:nonzero;"/>
                            </g>
                        </g>
                    </g>
                </g>
                <path d="M384.508,314.617C378.786,316.838 374.26,320.119 370.685,323.91C367.177,327.628 364.587,331.837 362.683,336.016C358.366,345.484 357.573,354.801 357.622,357.921C357.629,358.374 357.655,358.698 357.69,358.87C357.912,359.979 361.265,362.728 365.32,365.694C371.847,370.473 380.188,375.825 380.188,375.825C380.188,375.825 390.514,391.542 391.926,393.14C392.261,393.52 393.215,393.986 394.483,394.462C398.535,395.982 405.789,397.608 406.23,396.949C406.809,396.081 429.957,371.194 432.562,367.143C433.517,365.656 434.941,364.479 436.358,363.587C438.801,362.053 441.229,361.356 441.229,361.356L441.229,357.016L442.543,356.483C442.543,356.483 442.557,355.947 442.529,354.993C442.481,353.481 442.325,350.922 441.833,347.776C441.072,342.913 439.506,336.649 436.292,330.705C434.789,327.925 432.928,325.216 430.618,322.751C429.585,321.649 428.463,320.594 427.244,319.606C421.375,314.848 413.26,311.589 402.034,311.586C395.209,311.585 389.418,312.71 384.508,314.617Z" style="fill-rule:nonzero;"/>
                <path d="M397.588,329.931C395.693,330.39 393.473,331.284 391.671,333.017C390.773,333.88 389.978,334.955 389.381,336.29C388.858,337.46 388.486,338.833 388.331,340.44C388.261,341.163 388.23,341.885 388.235,342.603C388.247,344.38 388.48,346.14 388.893,347.862C389.402,349.985 390.183,352.05 391.163,354.02C391.656,355.009 392.197,355.973 392.778,356.911C393.513,358.093 394.312,359.23 395.155,360.31C396.53,362.072 397.84,363.452 398.787,364.376C399.677,365.247 400.246,365.714 400.246,365.714C400.246,365.714 400.875,365.127 401.857,364.093C402.269,363.656 402.746,363.139 403.265,362.554C403.61,362.161 403.976,361.74 404.354,361.29C404.769,360.796 405.198,360.267 405.635,359.71C406.453,358.665 407.27,357.566 408.049,356.421C408.662,355.514 409.252,354.581 409.802,353.62C410.894,351.711 411.822,349.703 412.443,347.631C412.948,345.948 413.25,344.225 413.275,342.476C413.286,341.768 413.251,341.056 413.166,340.341C412.97,338.712 412.58,337.326 412.055,336.147C411.459,334.808 410.692,333.735 409.842,332.878C409.234,332.265 408.588,331.762 407.934,331.35C407.337,330.974 406.734,330.673 406.152,330.431C405.277,330.07 404.447,329.843 403.745,329.701C402.936,329.535 402.12,329.46 401.303,329.46C400.055,329.46 398.807,329.635 397.588,329.931Z" style="fill-rule:nonzero;"/>
                <path d="M515.197,448.419C512.586,449.401 509.892,450.157 507.119,450.653C471.527,457.021 466.464,441.972 434.489,449.642C434.489,449.642 439.263,445.626 445.195,430.398C448.767,421.232 457.277,401.245 489.829,391.696C521.638,382.366 546.689,390.177 571.428,374.118C571.428,374.118 552.328,434.466 515.197,448.419M289.775,450.665C287.003,450.169 284.309,449.411 281.697,448.429C244.567,434.476 225.466,374.129 225.466,374.129C250.206,390.189 275.256,382.376 307.065,391.708C339.618,401.255 348.129,421.241 351.699,430.409C357.631,445.638 362.405,449.651 362.405,449.651C330.431,441.985 325.367,457.03 289.775,450.665M649.563,252.364C649.563,252.364 624.388,320.073 519.351,334.774C423.533,348.185 402.123,383.401 399.102,389.481C396.061,383.37 374.619,348.187 278.858,334.784C173.82,320.085 148.646,252.374 148.646,252.374C148.646,252.374 144.305,440.747 264.101,516.273C264.101,516.273 270.731,520.671 282.784,522.515C293.602,524.169 308.788,523.765 327.471,516.273C369.751,499.312 374.753,479.716 399.581,479.646C423.593,480.21 429.004,499.523 470.738,516.259C489.421,523.755 504.607,524.159 515.426,522.503C527.478,520.659 534.107,516.259 534.107,516.259C653.903,440.737 649.563,252.364 649.563,252.364" style="fill:rgb(140,3,91);fill-rule:nonzero;"/>
                <path d="M236.333,361.371C232.914,363.806 231.004,366.967 231.115,371.023C231.467,383.891 252.023,373.169 264.825,382.816C267.785,385.046 306.043,387.49 307.937,387.839C337.165,393.233 351.2,426.3 363.634,445.317C379.094,468.964 334.318,504.872 344.834,501.888C354.584,499.12 364.744,491.517 372.317,484.779C379.482,478.406 384.331,472.806 384.331,472.806C384.331,472.806 386.007,455.003 382.768,435.003C381.263,425.71 378.697,415.942 374.41,407.267C370.388,399.128 364.159,391.269 356.584,384.202C350.052,378.109 342.52,372.608 334.54,368.035C320.668,360.087 305.441,354.936 291.755,354.342C286.993,354.136 282.24,354.014 277.607,354.014C260.026,354.014 244.192,355.775 236.333,361.371Z" style="fill-rule:nonzero;"/>
                <path d="M576.3,347.583C576.199,348.108 576.125,348.648 576.082,349.204C566.356,475.095 488.086,499.032 471.44,506.169C468.514,507.424 467.074,508.314 467.686,509.357C468.317,510.437 469.344,511.635 470.846,512.759C479.003,518.878 501.16,522.862 550.043,494.509C560.039,488.712 569.137,480.173 577.35,470.019C583.82,462.017 589.48,452.857 595.117,443.544C623.429,396.777 634.107,339.731 635.526,335.548C633.911,335.193 620.863,332.422 607.392,332.422C593.25,332.421 578.642,335.475 576.3,347.583ZM635.526,335.548C635.637,335.572 635.693,335.585 635.693,335.585C635.693,335.395 635.679,335.303 635.65,335.303C635.622,335.304 635.581,335.386 635.526,335.548Z" style="fill-rule:nonzero;"/>
                <path d="M636.203,331.203C633.055,344.562 629.276,361.399 626.674,369.403C621.42,385.569 603.256,441.263 569.255,477.757C566.739,480.458 565.042,484.681 562.34,487.13C540.504,506.911 574.059,479.751 574.059,479.751C574.059,479.751 582.565,470.767 591.203,458.049C599.349,446.056 607.416,430.814 614.835,414.345C616.41,410.845 617.879,407.316 619.199,403.794C631.973,369.722 640.033,343.462 641.769,318.289C642.026,314.57 642,312.687 641.752,312.232C641.712,312.158 641.666,312.122 641.614,312.122C640.823,312.121 638.713,320.557 636.203,331.203Z" style="fill-rule:nonzero;"/>
                <path d="M162.297,291.376C160.561,291.954 159.403,305.174 159.403,305.174C158.534,311.496 157.665,317.82 156.794,324.141C156.794,324.141 164.546,363.272 183.73,405.825C193.121,426.658 205.251,448.311 220.555,466.595C226.993,474.285 233.99,481.378 241.582,487.563C259.466,502.135 269.438,510.549 274.561,515.134C277.84,515.807 281.119,516.48 284.399,517.153C289.769,515.516 295.141,513.882 300.512,512.245C300.512,512.245 317.733,517.222 331.284,509.554C344.834,501.888 338.228,502.061 338.228,502.061C338.228,502.061 353.43,455.387 325.574,455.851C324.066,455.875 324.185,455.449 324.362,455.024C324.544,454.581 324.789,454.139 323.333,454.2C300.304,455.173 279.068,455.317 264.138,441.931C247.355,426.883 226.535,397.862 225.377,393.809C224.221,389.758 222.484,371.023 222.484,371.023C229.765,372.865 237.046,374.705 244.327,376.545C244.381,364.982 261.126,339.989 249.581,333.913C233.973,325.7 206.279,317.997 206.279,317.997C206.279,317.997 188.986,305.265 182.876,300.056C177.157,295.182 165.639,291.321 162.762,291.321C162.565,291.32 162.408,291.339 162.297,291.376ZM251.895,382.406C248.722,382.664 250.422,381.53 252.122,380.396C253.91,379.202 255.698,378.01 251.809,378.436C249.315,377.806 246.821,377.175 244.327,376.545C244.309,380.491 246.238,382.875 251.895,382.406ZM251.895,382.406C252.061,382.393 252.24,382.375 252.434,382.354C252.25,382.374 252.071,382.392 251.895,382.406ZM274.561,515.134C273.02,514.817 271.48,514.501 269.939,514.184C269.939,514.184 287.341,526.572 274.561,515.134Z" style="fill-rule:nonzero;"/>
                <g>
                    <g opacity="0.800003">
                        <clipPath id="_clip25">
                            <rect x="383.125" y="424.775" width="31.074" height="50.446"/>
                        </clipPath>
                        <g clip-path="url(#_clip25)">
                            <path d="M384.332,472.806C383.794,475.231 391.028,475.397 397.826,475.122C403.193,474.905 408.287,474.415 409.076,474.544C410.859,474.833 414.199,471.034 414.199,471.034C414.199,471.034 413.754,462.099 413.898,446.476C413.978,437.88 412.643,432.251 409.62,428.884C406.574,425.493 401.729,424.62 397.363,424.798C392.957,424.974 389.945,426.567 387.875,428.935C383.992,433.374 383.422,440.53 383.168,446.12C382.765,454.974 385.293,468.466 384.332,472.806Z" style="fill-rule:nonzero;"/>
                        </g>
                    </g>
                </g>
                <path d="M505.75,354.342C492.064,354.936 476.838,360.087 462.967,368.035C454.986,372.608 447.453,378.109 440.922,384.202C433.347,391.269 427.117,399.128 423.097,407.267C418.808,415.942 416.243,425.71 414.736,435.003C411.498,455.003 413.175,472.806 413.175,472.806C413.175,472.806 418.025,478.406 425.189,484.779C432.762,491.517 442.922,499.12 452.672,501.888C463.189,504.872 418.412,468.964 433.871,445.317C446.305,426.3 460.342,393.233 489.568,387.839C491.463,387.49 529.722,385.046 532.68,382.816C545.483,373.169 566.039,383.891 566.391,371.023C566.504,366.967 564.592,363.806 561.172,361.371C553.314,355.775 537.48,354.014 519.898,354.014C515.265,354.014 510.511,354.136 505.75,354.342Z" style="fill-rule:nonzero;"/>
                <path d="M381.292,462.161C381.292,462.161 380.905,461.897 380.185,461.462C380.884,461.927 381.292,462.161 381.292,462.161" style="fill:rgb(255,0,164);fill-rule:nonzero;"/>
                <path d="M205.94,350.179C202.427,367.025 220.118,373.472 220.118,373.472C220.118,373.472 205.361,374.774 201.31,362.331C201.31,362.331 200.731,381.429 223.302,387.216C223.302,387.216 216.797,388.476 206.482,381.611C206.482,381.611 210.063,394.741 226.122,395.897C226.122,395.897 218.527,397.453 213.318,393.872C213.318,393.872 216.356,401.467 226.122,404.724C226.122,404.724 244.135,452.034 279.148,458.977C298.814,462.879 313.473,459.518 325.715,456.157C335.269,453.535 343.353,450.912 351.198,451.74C365.665,453.267 376.763,459.382 380.185,461.462C376.687,459.132 365.721,450.867 360.024,435.54C352.348,414.89 337.405,382.738 291.3,377.668C249.85,373.11 227.65,372.246 215.489,357.249C210.931,351.631 212.242,348.265 213.68,346.127C217.659,340.212 223.88,343.523 223.88,343.523C223.88,343.523 229.969,346.505 228.201,353.316C228.201,353.316 230.535,346.706 227.446,342.896C224.868,339.716 221.802,338.364 218.797,338.363C212.956,338.363 207.339,343.468 205.94,350.179ZM289.921,450.876C287.149,450.38 284.455,449.622 281.843,448.642C244.713,434.686 225.611,374.34 225.611,374.34C250.351,390.399 275.402,382.587 307.211,391.919C339.764,401.467 348.275,421.452 351.845,430.62C357.777,445.848 362.551,449.862 362.551,449.862C346.093,445.917 336.765,447.988 326.732,450.059C320.847,451.275 314.719,452.49 306.767,452.49C301.942,452.49 296.444,452.043 289.921,450.876Z" style="fill:url(#_Radial26);fill-rule:nonzero;"/>
                <path d="M570.763,342.885C567.674,346.694 570.008,353.306 570.008,353.306C568.24,346.495 574.328,343.512 574.328,343.512C574.328,343.512 580.55,340.203 584.528,346.117C585.966,348.253 587.278,351.62 582.72,357.24C570.56,372.235 548.359,373.099 506.908,377.657C460.805,382.726 446.033,414.944 438.184,435.528C432.662,450.014 422.307,458.393 418.434,461.136C422.211,458.751 432.789,452.882 447.011,451.732C454.738,451.107 462.68,453.651 472.016,456.195C484.355,459.558 499.129,462.92 519.061,458.967C554.073,452.022 572.087,404.712 572.087,404.712C581.852,401.456 584.89,393.861 584.89,393.861C579.682,397.441 572.087,395.886 572.087,395.886C588.146,394.729 591.727,381.599 591.727,381.599C581.411,388.466 574.907,387.206 574.907,387.206C597.478,381.419 596.898,362.321 596.898,362.321C592.849,374.763 578.091,373.46 578.091,373.46C578.091,373.46 595.782,367.016 592.269,350.167C590.871,343.458 585.253,338.353 579.412,338.353C576.406,338.353 573.342,339.705 570.763,342.885ZM445.341,430.61C448.912,421.442 457.422,401.456 489.975,391.908C521.786,382.577 546.835,390.388 571.574,374.329C571.574,374.329 552.475,434.677 515.344,448.63C512.732,449.612 510.038,450.368 507.264,450.864C489.994,453.953 479.911,452.001 470.454,450.048C460.422,447.977 451.093,445.906 434.633,449.852C434.633,449.852 439.409,445.837 445.341,430.61Z" style="fill:url(#_Radial27);fill-rule:nonzero;"/>
                <path d="M418.435,461.136C417.448,461.761 416.916,462.15 416.916,462.15C416.916,462.15 417.484,461.81 418.435,461.136" style="fill:rgb(255,0,164);fill-rule:nonzero;"/>
                <path d="M519.351,334.775C423.533,348.185 402.123,383.402 399.102,389.483C396.061,383.372 374.62,348.186 278.859,334.785C173.821,320.085 148.646,252.374 148.646,252.374C148.646,252.374 148.406,262.808 149.6,279.743L149.6,279.753C150.381,290.831 151.776,304.692 154.252,320.237C154.273,320.296 157.584,329.042 169.77,330.502C179.211,331.632 185.431,323.231 181.85,314.985C178.831,308.031 171.324,305.148 166.008,308.655C166.008,308.655 165.396,301.911 170.601,301.687C184.335,313.501 204.564,327.037 230.58,333.975C282.665,347.864 310.109,339.183 363.063,369.565C363.063,369.565 359.048,370.975 360.458,375.859C360.458,375.859 363.28,371.626 368.38,373.472C368.38,373.472 363.496,375.099 361.977,380.85C361.977,380.85 361.11,384.419 363.063,387.843C363.063,387.843 365.449,378.68 372.395,381.067C372.395,381.067 363.749,383.343 365.522,395.101C367.186,406.132 383.897,403.095 383.897,403.095C383.897,403.095 376.409,401.467 379.23,394.849C382.052,388.229 390.733,390.616 393.337,394.741C395.942,398.862 399.305,407.98 399.088,411.884L399.12,411.874C398.903,407.968 402.268,398.853 404.872,394.729C407.478,390.604 416.158,388.218 418.979,394.837C421.801,401.456 414.312,403.085 414.312,403.085C414.312,403.085 431.023,406.122 432.688,395.091C434.461,383.332 425.816,381.057 425.816,381.057C432.76,378.669 435.146,387.833 435.146,387.833C437.1,384.407 436.232,380.839 436.232,380.839C434.712,375.089 429.831,373.46 429.831,373.46C434.93,371.616 437.752,375.848 437.752,375.848C439.161,370.964 435.146,369.553 435.146,369.553C481.557,342.655 515.445,349.153 567.529,335.265C593.566,328.323 613.831,314.445 627.591,302.3C633.648,301.844 632.201,308.643 632.201,308.643C626.884,305.138 619.378,308.021 616.36,314.974C612.779,323.22 619,331.622 628.439,330.49C640.645,329.028 643.947,320.255 643.957,320.225C646.429,304.708 647.824,290.869 648.605,279.801C648.607,279.768 648.609,279.735 648.609,279.735L648.609,279.733C649.804,262.796 649.563,252.363 649.563,252.363C649.563,252.363 624.388,320.073 519.351,334.775Z" style="fill:url(#_Linear28);fill-rule:nonzero;"/>
                <path d="M554.943,491.085C557.183,481.611 552.047,479.802 552.047,479.802C555.521,488.77 548.285,493.979 548.285,493.979C547.289,477.132 533.544,476.914 533.544,476.914C541.617,484.548 538.566,492.999 537.063,496.012C537.985,493.699 538.511,488.009 527.452,480.091C511.538,468.697 493.887,481.536 493.887,481.536C509.512,478.353 515.228,482.152 516.716,489.324C518.314,497.027 513.563,514.813 490.993,511.919C468.422,509.026 430.46,481.693 419.231,474.013C408.288,466.532 398.928,467.001 398.928,467.001C398.928,467.001 387.363,464.811 372.901,477.353C372.253,477.913 361.767,486.204 356.171,489.751C340.205,499.866 319.522,510.13 305.48,511.932C282.91,514.823 278.16,497.036 279.758,489.333C281.245,482.163 286.96,478.366 302.586,481.548C302.586,481.548 284.935,468.708 269.021,480.1C257.962,488.019 258.488,493.708 259.409,496.024C257.907,493.009 254.856,484.557 262.93,476.923C262.93,476.923 249.184,477.141 248.187,493.991C248.187,493.991 240.952,488.782 244.425,479.811C244.425,479.811 239.288,481.621 241.531,491.097C241.531,491.097 219.523,480.378 202.541,455.917C213.318,472.684 233.8,500.487 263.234,516.561C263.234,516.561 275.771,528.165 306.539,522.363C337.309,516.561 356.071,501.447 364.187,495.915C371.584,490.875 382.016,481.477 393.608,480.237C395.047,480.083 396.521,479.808 397.922,479.925C412.544,479.479 424.718,490.062 432.664,495.839C440.608,501.612 459.215,516.282 489.934,522.353C517.727,527.845 533.24,516.549 533.24,516.549C562.674,500.477 584.011,472.616 594.786,455.849C577.805,480.309 554.943,491.085 554.943,491.085Z" style="fill:url(#_Linear29);fill-rule:nonzero;"/>
                <g>
                    <g>
                        <g transform="matrix(0.366302,-0,-0,0.366302,117.411,22.0541)">
                        </g>
                    </g>
                </g>
            </g>
        </g>
    </g>
    <defs>
        <radialGradient id="_Radial2" cx="0" cy="0" r="1" gradientUnits="userSpaceOnUse" gradientTransform="matrix(42.3263,48.2782,-48.2782,42.3263,569.353,261.312)"><stop offset="0%" style="stop-color:rgb(255,108,210);stop-opacity:1"/><stop offset="100%" style="stop-color:rgb(211,45,175);stop-opacity:1"/></radialGradient>
        <radialGradient id="_Radial4" cx="0" cy="0" r="1" gradientUnits="userSpaceOnUse" gradientTransform="matrix(76.4527,87.2034,-87.2034,76.4527,551.32,281.911)"><stop offset="0%" style="stop-color:rgb(170,15,141);stop-opacity:1"/><stop offset="100%" style="stop-color:rgb(112,0,96);stop-opacity:1"/></radialGradient>
        <radialGradient id="_Radial6" cx="0" cy="0" r="1" gradientUnits="userSpaceOnUse" gradientTransform="matrix(129.092,98.587,-98.587,129.092,518.386,282.895)"><stop offset="0%" style="stop-color:rgb(255,164,231);stop-opacity:1"/><stop offset="100%" style="stop-color:rgb(255,108,210);stop-opacity:1"/></radialGradient>
        <radialGradient id="_Radial8" cx="0" cy="0" r="1" gradientUnits="userSpaceOnUse" gradientTransform="matrix(137.238,22.6736,-22.6736,137.238,486.872,268.988)"><stop offset="0%" style="stop-color:rgb(242,90,203);stop-opacity:1"/><stop offset="100%" style="stop-color:rgb(211,64,180);stop-opacity:1"/></radialGradient>
        <radialGradient id="_Radial10" cx="0" cy="0" r="1" gradientUnits="userSpaceOnUse" gradientTransform="matrix(81.1436,71.308,-71.308,81.1436,375.637,193.751)"><stop offset="0%" style="stop-color:rgb(170,15,141);stop-opacity:1"/><stop offset="100%" style="stop-color:rgb(112,0,96);stop-opacity:1"/></radialGradient>
        <radialGradient id="_Radial12" cx="0" cy="0" r="1" gradientUnits="userSpaceOnUse" gradientTransform="matrix(-97.1262,109.421,-109.421,-97.1262,374.818,121.625)"><stop offset="0%" style="stop-color:rgb(255,108,210);stop-opacity:1"/><stop offset="100%" style="stop-color:rgb(211,45,175);stop-opacity:1"/></radialGradient>
        <radialGradient id="_Radial14" cx="0" cy="0" r="1" gradientUnits="userSpaceOnUse" gradientTransform="matrix(81.6651,72.0274,-72.0274,81.6651,274.242,277.632)"><stop offset="0%" style="stop-color:rgb(255,141,231);stop-opacity:1"/><stop offset="100%" style="stop-color:rgb(237,74,195);stop-opacity:1"/></radialGradient>
        <radialGradient id="_Radial16" cx="0" cy="0" r="1" gradientUnits="userSpaceOnUse" gradientTransform="matrix(74.5472,59.9193,-59.9193,74.5472,282.611,304.453)"><stop offset="0%" style="stop-color:rgb(242,90,203);stop-opacity:1"/><stop offset="100%" style="stop-color:rgb(127,0,103);stop-opacity:1"/></radialGradient>
        <radialGradient id="_Radial18" cx="0" cy="0" r="1" gradientUnits="userSpaceOnUse" gradientTransform="matrix(-136.878,-66.3902,66.3902,-136.878,369.798,242.608)"><stop offset="0%" style="stop-color:rgb(242,90,203);stop-opacity:1"/><stop offset="100%" style="stop-color:rgb(211,64,180);stop-opacity:1"/></radialGradient>
        <radialGradient id="_Radial20" cx="0" cy="0" r="1" gradientUnits="userSpaceOnUse" gradientTransform="matrix(127.863,99.996,-99.996,127.863,241.116,177.037)"><stop offset="0%" style="stop-color:rgb(255,164,231);stop-opacity:1"/><stop offset="100%" style="stop-color:rgb(255,108,210);stop-opacity:1"/></radialGradient>
        <radialGradient id="_Radial22" cx="0" cy="0" r="1" gradientUnits="userSpaceOnUse" gradientTransform="matrix(-210.236,-73.7669,73.7669,-210.236,460.47,207.275)"><stop offset="0%" style="stop-color:rgb(255,141,231);stop-opacity:1"/><stop offset="100%" style="stop-color:rgb(237,74,195);stop-opacity:1"/></radialGradient>
        <radialGradient id="_Radial24" cx="0" cy="0" r="1" gradientUnits="userSpaceOnUse" gradientTransform="matrix(197.94,51.6367,-51.6367,197.94,435.061,199.081)"><stop offset="0%" style="stop-color:rgb(193,30,158);stop-opacity:1"/><stop offset="31%" style="stop-color:rgb(187,27,153);stop-opacity:1"/><stop offset="56%" style="stop-color:rgb(127,0,103);stop-opacity:1"/><stop offset="100%" style="stop-color:rgb(127,0,103);stop-opacity:1"/></radialGradient>
        <radialGradient id="_Radial26" cx="0" cy="0" r="1" gradientUnits="userSpaceOnUse" gradientTransform="matrix(175.689,0,0,175.689,288.143,451.996)"><stop offset="0%" style="stop-color:rgb(255,110,211);stop-opacity:1"/><stop offset="62%" style="stop-color:rgb(233,3,156);stop-opacity:1"/><stop offset="100%" style="stop-color:rgb(211,5,148);stop-opacity:1"/></radialGradient>
        <radialGradient id="_Radial27" cx="0" cy="0" r="1" gradientUnits="userSpaceOnUse" gradientTransform="matrix(115.015,0,0,115.015,505.931,455.301)"><stop offset="0%" style="stop-color:rgb(255,110,211);stop-opacity:1"/><stop offset="62%" style="stop-color:rgb(233,3,156);stop-opacity:1"/><stop offset="100%" style="stop-color:rgb(211,5,148);stop-opacity:1"/></radialGradient>
        <linearGradient id="_Linear28" x1="0" y1="0" x2="1" y2="0" gradientUnits="userSpaceOnUse" gradientTransform="matrix(500.957,0,0,500.957,148.626,332.123)"><stop offset="0%" style="stop-color:rgb(255,164,231);stop-opacity:1"/><stop offset="6%" style="stop-color:rgb(255,14,170);stop-opacity:1"/><stop offset="9%" style="stop-color:rgb(245,1,160);stop-opacity:1"/><stop offset="12%" style="stop-color:rgb(211,5,148);stop-opacity:1"/><stop offset="78%" style="stop-color:rgb(212,7,149);stop-opacity:1"/><stop offset="93%" style="stop-color:rgb(242,57,186);stop-opacity:1"/><stop offset="96%" style="stop-color:rgb(212,7,149);stop-opacity:1"/><stop offset="100%" style="stop-color:rgb(255,164,231);stop-opacity:1"/></linearGradient>
        <linearGradient id="_Linear29" x1="0" y1="0" x2="1" y2="0" gradientUnits="userSpaceOnUse" gradientTransform="matrix(392.245,0,0,392.245,202.541,489.918)"><stop offset="0%" style="stop-color:rgb(255,164,231);stop-opacity:1"/><stop offset="9%" style="stop-color:rgb(255,153,226);stop-opacity:1"/><stop offset="21%" style="stop-color:rgb(255,0,164);stop-opacity:1"/><stop offset="31%" style="stop-color:rgb(222,3,155);stop-opacity:1"/><stop offset="34%" style="stop-color:rgb(198,5,149);stop-opacity:1"/><stop offset="40%" style="stop-color:rgb(199,19,155);stop-opacity:1"/><stop offset="43%" style="stop-color:rgb(215,60,177);stop-opacity:1"/><stop offset="46%" style="stop-color:rgb(249,149,223);stop-opacity:1"/><stop offset="50%" style="stop-color:rgb(255,129,216);stop-opacity:1"/><stop offset="59%" style="stop-color:rgb(255,20,172);stop-opacity:1"/><stop offset="62%" style="stop-color:rgb(251,1,162);stop-opacity:1"/><stop offset="87%" style="stop-color:rgb(170,15,141);stop-opacity:1"/><stop offset="90%" style="stop-color:rgb(180,32,151);stop-opacity:1"/><stop offset="93%" style="stop-color:rgb(208,81,181);stop-opacity:1"/><stop offset="96%" style="stop-color:rgb(253,160,228);stop-opacity:1"/><stop offset="100%" style="stop-color:rgb(255,164,231);stop-opacity:1"/></linearGradient>
    </defs>
</svg>
